<svg id="Layer_1" data-name="Layer 1" xmlns="http://www.w3.org/2000/svg" viewBox="0 0 2768.43 464.34"><defs><style>.cls-1,.cls-2{fill:#157dc3;}.cls-2{font-size:129.4px;font-family:EthnocentricRg-Regular, Ethnocentric;}</style></defs><path class="cls-1" d="M577,216.22c0,120.83-82.9,174.92-247.2,174.92C165,391.14,82.59,337.05,82.59,216.22S165,41.81,329.8,41.81C494.1,41.81,577,95.4,577,216.22Zm-104.14,0c0-72.79-37.91-86.44-143.06-86.44s-143.07,13.65-143.07,86.44,37.91,87,143.07,87S472.86,289,472.86,216.22Z"/><path d="M720.58,385.58l63.2-86.95h84.93c20.22,0,44,0,60.16,1-9.1-12.14-23.26-32.86-34.38-49l-60.67-89.48L675.08,385.58H551.23L768.1,79.73C782.26,60,803,41.81,835.85,41.81c31.34,0,52.07,16.69,66.73,37.92l211.31,305.85Z"/><path d="M1529.45,298.63l-67.24,86.95H1292.35c-117.29,0-203.73-74.31-203.73-172.39,0-99.08,86.44-165.82,203.73-165.82h237.1l-67.24,88H1292.35c-56.62,0-99.09,33.87-99.09,82.4,0,48,42,80.89,99.09,80.89Z"/><path d="M1958.65,298.63l-67.24,86.95H1565.84V47.37h391.8l-67.75,88H1671v40.44h267.94l-60.16,76.84H1671v46Z"/><path d="M2478.84,47.37l-200.7,226.49V385.58H2173V273.35l-206.26-226H2101.2l80.89,94c10.62,12.14,38.93,43,46,53.09,6.57-9.61,18.2-24.27,42.46-53.59l76.84-93.53Z"/></svg>